<?xml version="1.0" encoding="utf-8"?>
<!-- Generator: Adobe Illustrator 23.0.1, SVG Export Plug-In . SVG Version: 6.00 Build 0)  -->
<svg version="1.1" id="Layer_1" xmlns="http://www.w3.org/2000/svg" xmlns:xlink="http://www.w3.org/1999/xlink" x="0px" y="0px"
	 viewBox="0 0 2360 2360" style="enable-background:new 0 0 2360 2360;" xml:space="preserve">
<style type="text/css">
	.st0{fill:#333333;}
</style>
<g id="XMLID_28420_">
	<g id="XMLID_28443_">
		<g id="XMLID_28482_">
			<path id="XMLID_28483_" class="st0" d="M678.47,1114.78c-34.87,0-66.21-6.67-93.12-19.83l-2.5-1.23v-73.08l6.28,2.8
				c21.42,9.54,39.74,16.36,54.48,20.24c31.55,8.3,58.62,7.63,72-1.96c6.82-4.88,10.13-12.04,10.13-21.91
				c0-5.41-1.46-10.06-4.45-14.25c-3.19-4.45-8.03-8.85-14.37-13.09c-6.63-4.41-20.48-11.64-41.16-21.48
				c-19.93-9.37-35.17-18.56-45.26-27.3c-10.22-8.85-18.49-19.29-24.6-31.04c-6.18-11.89-9.3-25.92-9.3-41.69
				c0-29.72,10.27-53.46,30.53-70.57c20.04-16.92,47.94-25.49,82.92-25.49c17.04,0,33.54,2.05,49.02,6.09
				c15.37,4.01,31.62,9.71,48.31,16.96l4.03,1.74l-25.4,61.23l-4.12-1.69c-16.89-6.94-31.01-11.83-41.98-14.55
				c-10.83-2.69-21.61-4.06-32.06-4.06c-11.75,0-20.76,2.67-26.79,7.93c-5.94,5.18-8.82,11.79-8.82,20.2c0,5.22,1.15,9.6,3.51,13.38
				c2.45,3.93,6.5,7.85,12.06,11.68c5.88,4.03,20.24,11.51,42.66,22.22c30.59,14.63,51.95,29.62,63.49,44.57
				c11.72,15.19,17.66,33.99,17.66,55.9c0,30.35-11.12,54.63-33.05,72.19C746.93,1106.01,716.62,1114.78,678.47,1114.78z
				 M591.78,1088.14c25.12,11.76,54.28,17.72,86.69,17.72c36.07,0,64.51-8.12,84.51-24.12c19.99-15.99,29.7-37.32,29.7-65.21
				c0-19.89-5.32-36.86-15.8-50.45c-10.67-13.84-30.94-27.95-60.26-41.97c-23.17-11.05-37.52-18.55-43.87-22.91
				c-6.59-4.52-11.49-9.34-14.58-14.31c-3.23-5.18-4.86-11.27-4.86-18.1c0-10.99,4-20.05,11.88-26.92
				c7.7-6.71,18.69-10.13,32.66-10.13c11.17,0,22.68,1.46,34.21,4.32c10.48,2.6,23.61,7.06,39.1,13.28l18.62-44.89
				c-14.86-6.24-29.29-11.21-42.98-14.78c-14.75-3.85-30.48-5.8-46.76-5.8c-32.81,0-58.78,7.87-77.16,23.39
				c-18.42,15.55-27.37,36.39-27.37,63.75c0,14.32,2.79,26.96,8.3,37.58c5.58,10.74,13.15,20.3,22.52,28.41
				c9.48,8.2,24.03,16.94,43.24,25.97c21.39,10.17,35.21,17.41,42.3,22.13c7.24,4.83,12.85,9.99,16.67,15.32
				c4.06,5.66,6.12,12.21,6.12,19.44c0,12.78-4.67,22.59-13.86,29.17c-15.78,11.31-45.11,12.38-79.48,3.33
				c-13.72-3.62-30.36-9.64-49.55-17.95V1088.14z"/>
		</g>
		<g id="XMLID_28478_">
			<path id="XMLID_28479_" class="st0" d="M1220.36,1110.38h-76.3V962.14c0-16.78-2.75-29.39-8.16-37.49
				c-5.11-7.63-13.08-11.34-24.37-11.34c-15.02,0-25.88,5.14-33.21,15.7c-7.57,10.93-11.42,28.89-11.42,53.38v127.98H990.8V962.14
				c0-16.78-2.74-29.39-8.16-37.49c-5.11-7.63-13.08-11.34-24.37-11.34c-15.66,0-26.65,5.5-33.63,16.82
				c-7.3,11.85-11,32.03-11,59.96v120.28h-76.08V855.3h59.13L907,873c6.84-9.92,14.17-6.37,25.69-12.27
				c13.05-6.67,28.18-10.06,44.97-10.06c37.24,0,64.17,8.37,78.34,32.33l1-8c6.99-11.12,15.91-8.13,28.66-14.41
				c13.4-6.59,28.69-9.92,45.46-9.92c28.99,0,51.35,7.66,66.46,22.77c15.11,15.12,22.78,39.32,22.78,71.96V1110.38z
				 M1152.98,1101.46h58.45V945.41c0-30.18-6.79-52.27-20.16-65.65c-13.37-13.37-33.61-20.16-60.15-20.16
				c-15.38,0-29.35,3.03-41.52,9.01c-11.97,5.88-20.48,1.77-26.6,12.39l-18-7l-5,7l-11,11c-12.34-22.72-15.94-32.4-51.34-32.4
				c-15.36,0-29.12,3.05-40.9,9.09c-11.64,5.96-19.62-7.19-25.75,3.31l3.95-1.51c-0.8,1.37-2.26,2.21-3.85,2.21h-3.76
				c-1.99,0-3.73-1.32-4.28-3.22l-13.1-5.26h-43.47v237.23h58.23V990.1c0-30.04,4.03-51.18,12.33-64.65
				c8.61-13.97,22.48-21.05,41.23-21.05c14.29,0,24.99,5.15,31.79,15.3c6.51,9.73,9.67,23.62,9.67,42.45v139.31h58.23V982.4
				c0-26.72,4.26-45.84,13.01-58.47c9-12.96,22.64-19.54,40.55-19.54c14.3,0,24.99,5.15,31.79,15.3c6.51,9.73,9.67,23.62,9.67,42.45
				V1101.46z"/>
		</g>
		<g id="XMLID_28472_">
			<path id="XMLID_28473_" class="st0" d="M1336.51,1114.78c-24.74,0-44.58-7.25-58.96-21.55c-14.39-14.31-21.68-34.79-21.68-60.86
				c0-27.57,9.89-48.26,29.37-61.49c18.89-12.82,47.49-20.01,85.02-21.36l38.41-1.19v-6.45c0-22.49-10.76-32.97-33.85-32.97
				c-18.96,0-41.67,5.87-67.54,17.45l-3.93,1.76l-26.05-53.13l3.85-2.02c28.84-15.09,61.25-22.75,96.3-22.75
				c33.94,0,60.44,7.6,78.79,22.58c18.62,15.21,28.06,38.45,28.06,69.07v168.5h-54.42l-11.9-30.66
				c-10.58,12.36-21.61,21.23-32.83,26.39C1372.67,1111.87,1356.3,1114.78,1336.51,1114.78z M1374.82,899.99
				c27.98,0,42.77,14.49,42.77,41.89V957l-47.04,1.45c-35.8,1.29-62.83,7.95-80.31,19.82c-17.12,11.62-25.45,29.33-25.45,54.1
				c0,23.6,6.41,41.95,19.06,54.52c12.64,12.58,30.36,18.96,52.67,18.96c18.49,0,33.6-2.64,44.92-7.85
				c11.26-5.18,22.46-14.72,33.27-28.34l1.35-1.68h6.97l12.99,33.47h39.38V941.89c0-27.82-8.34-48.73-24.78-62.16
				c-16.71-13.65-41.32-20.57-73.14-20.57c-32.04,0-61.72,6.65-88.28,19.76l18.41,37.56
				C1332.99,905.53,1355.59,899.99,1374.82,899.99z M1361.83,1065.69c-30.63,0-37.05-17.88-37.05-32.87
				c0-14.72,5.47-25.89,16.27-33.2c10.35-7.01,25.39-10.71,45.97-11.34l30.58-1.03v24.87c0,16.02-5.17,29.1-15.35,38.89
				C1392.11,1060.75,1378.5,1065.69,1361.83,1065.69z M1408.67,996.48l-21.37,0.72c-18.59,0.56-32.46,3.86-41.24,9.81
				c-8.31,5.62-12.35,14.06-12.35,25.8c0,16.33,8.93,23.94,28.12,23.94c14.5,0,25.7-3.98,34.23-12.18
				c8.49-8.16,12.61-18.77,12.61-32.46V996.48z"/>
		</g>
		<g id="XMLID_28468_">
			<path id="XMLID_28469_" class="st0" d="M1612.41,1110.38h-76.08V855.3h58.84l9.12,38.09c7.57-11.85,17.32-21.7,29.08-29.34
				c13.66-8.87,28.74-13.38,44.81-13.38c9.38,0,17.33,0.7,23.64,2.08l3.8,0.84l-5.81,72.21l-5.18-1.4
				c-5.02-1.36-11.3-2.05-18.65-2.05c-20.18,0-36.01,5.16-47.07,15.33c-11.11,10.22-16.51,24.27-16.51,42.95V1110.38z
				 M1545.26,1101.46h58.23V980.64c0-21.03,6.53-37.68,19.39-49.52c12.75-11.74,30.62-17.69,53.11-17.69
				c5.84,0,11.12,0.41,15.78,1.22l4.33-53.87c-5.01-0.78-11.01-1.17-17.91-1.17c-14.32,0-27.76,4.01-39.95,11.94
				c-12.31,8-22.23,18.69-29.46,31.77l-1.27,2.31h-9.46l-9.91-41.39h-42.87V1101.46z"/>
		</g>
		<g id="XMLID_28464_">
			<path id="XMLID_28465_" class="st0" d="M1829.89,1114.78c-28.04,0-48.9-7.35-61.99-21.83c-12.96-14.37-19.53-35.93-19.53-64.1
				V914.64h-32.15v-35.37l37.82-22.97l19.91-53.41h50.5v52.41h68.91v59.35h-68.91v114.21c0,8.24,2.11,14.04,6.47,17.73
				c4.56,3.88,10.56,5.76,18.35,5.76c11.24,0,25.01-2.52,40.94-7.5l5.8-1.81v58.95l-2.64,1.18
				C1876.13,1110.87,1854.78,1114.78,1829.89,1114.78z M1725.14,905.71h32.15v123.14c0,25.88,5.8,45.44,17.23,58.11
				c11.31,12.53,29.95,18.89,55.36,18.89c22.36,0,41.57-3.27,57.19-9.7v-41.04c-27.63,7.85-49.09,9.22-61.94-1.72
				c-6.38-5.41-9.61-13.67-9.61-24.54V905.71h68.91v-41.49h-68.91v-52.41h-35.37l-18.83,50.51l-36.17,21.95V905.71z"/>
		</g>
		<g id="XMLID_28460_">
			<path id="XMLID_28461_" class="st0" d="M867.18,1553.23h-76.96V1414.3H671.66v138.93h-77.18V1222.4h77.18v126.17h118.56V1222.4
				h76.96V1553.23z M799.15,1544.31h59.11v-312.97h-59.11v126.17H662.74v-126.17h-59.33v312.97h59.33v-138.93h136.42V1544.31z"/>
		</g>
		<g id="XMLID_28454_">
			<path id="XMLID_28455_" class="st0" d="M1034.2,1557.64c-24.31,0-46.1-5.43-64.75-16.11c-18.75-10.74-33.35-26.38-43.39-46.47
				c-9.95-19.91-15-43.4-15-69.81c0-41.21,11-73.8,32.7-96.86c21.77-23.14,52.65-34.87,91.76-34.87c24.3,0,46.09,5.38,64.74,16
				c18.75,10.67,33.35,26.19,43.4,46.13c9.95,19.77,15,43.18,15,69.6c0,41.05-11.07,73.71-32.91,97.07
				C1103.84,1545.75,1073.04,1557.64,1034.2,1557.64z M1035.52,1302.45c-36.56,0-65.24,10.79-85.26,32.06
				c-20.09,21.35-30.28,51.88-30.28,90.74c0,25.02,4.74,47.16,14.07,65.82c9.24,18.49,22.64,32.86,39.84,42.71
				c17.28,9.91,37.57,14.93,60.31,14.93c36.26,0,64.87-10.93,85.03-32.5c20.24-21.64,30.51-52.25,30.51-90.96
				c0-25.01-4.73-47.08-14.05-65.58c-9.24-18.34-22.64-32.6-39.84-42.38C1078.55,1307.44,1058.26,1302.45,1035.52,1302.45z
				 M1035.08,1503.69c-19.59,0-34-6.99-42.83-20.77c-8.43-13.15-12.71-32.56-12.71-57.68c0-25.28,4.25-44.58,12.62-57.38
				c8.77-13.39,23.06-20.18,42.49-20.18c19.57,0,33.95,6.84,42.71,20.3c8.37,12.86,12.61,32.13,12.61,57.26
				c0,25.25-4.2,44.69-12.47,57.76C1068.81,1496.74,1054.54,1503.69,1035.08,1503.69z M1034.64,1356.62
				c-16.45,0-27.91,5.28-35.02,16.14c-7.4,11.31-11.16,28.98-11.16,52.49c0,23.38,3.8,41.16,11.3,52.85
				c7.19,11.21,18.75,16.66,35.32,16.66c16.43,0,27.84-5.41,34.87-16.53c7.36-11.62,11.09-29.45,11.09-52.99
				c0-23.38-3.76-41-11.16-52.39C1062.76,1361.93,1051.23,1356.62,1034.64,1356.62z"/>
		</g>
		<g id="XMLID_28450_">
			<path id="XMLID_28451_" class="st0" d="M1578.37,1553.23h-73.4c-0.8,0-1.45-0.65-1.45-1.45v-146.79
				c0-16.78-2.75-29.39-8.16-37.48c-5.11-7.63-13.08-11.34-24.37-11.34c-15.02,0-25.88,5.13-33.21,15.69
				c-7.58,10.93-11.42,28.89-11.42,53.39v126.53c0,0.8-0.65,1.45-1.45,1.45h-73.18c-0.8,0-1.45-0.65-1.45-1.45v-146.79
				c0-16.78-2.74-29.39-8.16-37.48c-5.11-7.63-13.08-11.34-24.36-11.34c-15.66,0-26.67,5.5-33.63,16.81
				c-7.31,11.85-11.01,32.03-11.01,59.97v118.82c0,0.8-0.65,1.45-1.45,1.45h-73.18c-0.8,0-1.45-0.65-1.45-1.45V1299.6
				c0-0.8,0.65-1.45,1.45-1.45h56.72c0.58,0,1.11,0.35,1.34,0.89l7.48,17.66c0.42,1,1.75,1.2,2.44,0.37
				c6.62-7.95,14.98-8,25.69-13.47c13.05-6.68,28.19-10.07,44.97-10.07c35.33,0,60.58,10.93,75.18,32.51
				c0.77,1.14,2.54,0.7,2.66-0.67l0,0c0.02-0.24,0.1-0.47,0.23-0.67c6.98-10.88,17.31-15.04,29.94-21.24
				c13.4-6.59,28.69-9.93,45.46-9.93c28.98,0,51.35,7.66,66.46,22.78c15.11,15.11,22.78,39.32,22.78,71.96v163.52
				C1579.83,1552.58,1579.18,1553.23,1578.37,1553.23z M1513.9,1544.31h55.54c0.8,0,1.45-0.65,1.45-1.45v-154.59
				c0-30.19-6.79-52.28-20.16-65.65c-13.38-13.38-33.61-20.16-60.15-20.16c-15.38,0-29.35,3.03-41.52,9.01
				c-11.97,5.89-22.15-7.75-28.27,2.87l-0.95,1.65c-0.21,0.37-0.58,0.63-1,0.7l-12.53,2.26c-0.21,0.04-0.41,0.12-0.59,0.25
				l-5.41,3.87c-0.7,0.5-1.67,0.29-2.1-0.45c-12.16-21.28-26.44-20.16-61.1-20.16c-15.35,0-29.11,3.06-40.9,9.09
				c-11.64,5.96-28.66-6.69-34.8,3.81l-0.87,1.49c-0.26,0.45-0.74,0.72-1.26,0.72h-7.52c-0.75,0-1.37-0.57-1.45-1.31l-0.77-7.86
				c-0.07-0.74-0.7-1.31-1.45-1.31h-40.7c-0.8,0-1.45,0.65-1.45,1.45v234.32c0,0.8,0.65,1.45,1.45,1.45h55.32
				c0.8,0,1.45-0.65,1.45-1.45v-109.9c0-30.04,4.03-51.19,12.33-64.65c8.6-13.97,22.48-21.05,41.24-21.05
				c14.29,0,24.99,5.15,31.78,15.3c6.51,9.71,9.67,23.6,9.67,42.45v137.86c0,0.8,0.65,1.45,1.45,1.45h55.33
				c0.8,0,1.45-0.65,1.45-1.45v-117.6c0-26.72,4.26-45.84,13.02-58.47c8.98-12.96,22.62-19.53,40.54-19.53
				c14.3,0,24.99,5.15,31.79,15.3c6.51,9.73,9.67,23.61,9.67,42.45v137.86C1512.45,1543.66,1513.1,1544.31,1513.9,1544.31z"/>
		</g>
		<g id="XMLID_28444_">
			<path id="XMLID_28445_" class="st0" d="M1747.5,1557.64c-40.66,0-72.97-11.47-96.04-34.09c-23.09-22.64-34.8-54.97-34.8-96.1
				c0-42.2,10.81-75.4,32.11-98.68c21.41-23.39,51.3-35.25,88.83-35.25c35.88,0,64.28,10.45,84.44,31.07
				c20.13,20.59,30.34,49.27,30.34,85.24v37.05H1693.9c1.37,15.65,6.52,28.12,15.38,37.1c9.65,9.78,23.55,14.74,41.3,14.74
				c14.42,0,28.23-1.52,41.04-4.5c12.85-3.01,26.47-7.86,40.51-14.45l6.36-2.99v61.76l-2.46,1.23
				c-12.03,6.01-25.05,10.54-38.71,13.48C1783.71,1556.16,1766.96,1557.64,1747.5,1557.64z M1737.59,1302.45
				c-34.93,0-62.6,10.89-82.25,32.34c-19.75,21.58-29.76,52.76-29.76,92.66c0,38.64,10.81,68.83,32.13,89.73
				c21.34,20.93,51.55,31.54,89.79,31.54c18.83,0,34.96-1.42,47.95-4.2c11.99-2.57,23.46-6.44,34.11-11.52v-42.25
				c-12.37,5.41-24.42,9.5-35.91,12.18c-13.48,3.14-27.96,4.74-43.07,4.74c-20.23,0-36.27-5.86-47.66-17.41
				c-11.33-11.48-17.46-27.51-18.23-47.66l-0.18-4.63h158.93v-28.12c0-33.56-9.36-60.15-27.8-79
				C1797.23,1312,1770.97,1302.45,1737.59,1302.45z M1789.47,1402.19H1685.9l0.34-4.78c1.24-17.52,6.29-31.34,15-41.08
				c8.92-9.97,21.3-15.03,36.8-15.03c15.46,0,27.98,5.04,37.18,14.97c9.1,9.82,13.87,23.74,14.18,41.38L1789.47,1402.19z
				 M1695.6,1393.26h84.67c-0.91-13.2-4.81-23.59-11.6-30.92c-7.55-8.15-17.58-12.11-30.63-12.11c-13.03,0-22.89,3.94-30.14,12.05
				C1701.3,1369.64,1697.18,1380.05,1695.6,1393.26z"/>
		</g>
	</g>
	<g id="XMLID_28421_">
		<path id="XMLID_28441_" class="st0" d="M756.64,988.56c0,29.06-10.46,51.96-31.38,68.7c-20.92,16.74-50.02,25.1-87.3,25.1
			c-34.35,0-64.73-6.46-91.15-19.38v-63.41c21.72,9.69,40.11,16.51,55.15,20.48c15.04,3.96,28.81,5.94,41.28,5.94
			c14.97,0,26.46-2.86,34.46-8.59c8-5.72,12-14.24,12-25.53c0-6.32-1.76-11.93-5.28-16.85c-3.52-4.92-8.69-9.65-15.52-14.2
			c-6.82-4.55-20.73-11.82-41.72-21.8c-19.67-9.25-34.42-18.13-44.26-26.64c-9.83-8.51-17.69-18.42-23.56-29.73
			c-5.88-11.3-8.81-24.51-8.81-39.63c0-28.48,9.65-50.86,28.95-67.15c19.3-16.29,45.99-24.44,80.04-24.44
			c16.74,0,32.7,1.98,47.89,5.95c15.19,3.96,31.08,9.54,47.66,16.73l-22.01,53.06c-17.17-7.04-31.38-11.96-42.6-14.75
			c-11.23-2.79-22.28-4.19-33.13-4.19c-12.92,0-22.83,3.01-29.73,9.03c-6.9,6.02-10.35,13.87-10.35,23.56
			c0,6.02,1.39,11.27,4.19,15.74c2.79,4.48,7.23,8.81,13.32,12.99c6.1,4.18,20.52,11.7,43.27,22.57
			c30.09,14.39,50.71,28.81,61.87,43.26C751.06,949.85,756.64,967.57,756.64,988.56z"/>
		<path id="XMLID_28439_" class="st0" d="M1021.91,1077.95h-67.15V934.18c0-17.76-2.97-31.08-8.91-39.96
			c-5.95-8.88-15.31-13.32-28.08-13.32c-17.17,0-29.65,6.31-37.43,18.94c-7.78,12.62-11.67,33.4-11.67,62.31v115.81h-67.15V831.79
			h51.3l9.03,31.49h3.75c6.6-11.3,16.14-20.15,28.62-26.53c12.48-6.39,26.79-9.58,42.93-9.58c36.84,0,61.79,12.04,74.86,36.11h5.94
			c6.61-11.45,16.33-20.33,29.18-26.64c12.84-6.31,27.33-9.47,43.48-9.47c27.89,0,48.99,7.16,63.3,21.47
			c14.31,14.31,21.47,37.25,21.47,68.8v160.51H1108V934.18c0-17.76-2.97-31.08-8.91-39.96c-5.95-8.88-15.31-13.32-28.08-13.32
			c-16.44,0-28.73,5.87-36.88,17.61c-8.14,11.74-12.22,30.38-12.22,55.93V1077.95z"/>
		<path id="XMLID_28436_" class="st0" d="M1392.43,1077.95l-12.99-33.46h-1.76c-11.31,14.23-22.94,24.11-34.91,29.61
			c-11.96,5.51-27.55,8.26-46.78,8.26c-23.64,0-42.24-6.75-55.82-20.26c-13.58-13.51-20.36-32.74-20.36-57.68
			c0-26.13,9.14-45.4,27.41-57.8c18.27-12.41,45.83-19.26,82.67-20.59l42.71-1.31v-10.79c0-24.95-12.76-37.43-38.31-37.43
			c-19.67,0-42.79,5.95-69.36,17.84l-22.24-45.36c28.33-14.82,59.74-22.23,94.23-22.23c33.03,0,58.35,7.19,75.96,21.57
			c17.62,14.39,26.43,36.26,26.43,65.62v164.03H1392.43z M1372.61,963.91l-25.98,0.88c-19.53,0.58-34.05,4.1-43.6,10.57
			c-9.54,6.45-14.31,16.28-14.31,29.5c0,18.93,10.87,28.4,32.59,28.4c15.55,0,28-4.48,37.32-13.43
			c9.32-8.95,13.98-20.84,13.98-35.67V963.91z"/>
		<path id="XMLID_28434_" class="st0" d="M1637.67,827.17c9.1,0,16.66,0.66,22.68,1.98l-5.06,62.98c-5.43-1.47-12.04-2.2-19.81-2.2
			c-21.43,0-38.13,5.51-50.09,16.51c-11.96,11.01-17.94,26.42-17.94,46.23v125.28h-67.16V831.79h50.86l9.91,41.4h3.3
			c7.63-13.8,17.94-24.92,30.93-33.36C1608.27,831.4,1622.41,827.17,1637.67,827.17z"/>
		<path id="XMLID_28432_" class="st0" d="M1808.75,1028.85c11.74,0,25.83-2.57,42.28-7.71v49.98
			c-16.73,7.49-37.29,11.23-61.65,11.23c-26.86,0-46.42-6.79-58.68-20.36c-12.25-13.58-18.39-33.95-18.39-61.1V882.22h-32.15v-28.4
			l36.99-22.46l19.38-51.96h42.93v52.4h68.92v50.43h-68.92v118.68c0,9.54,2.68,16.58,8.04,21.14
			C1792.86,1026.58,1799.94,1028.85,1808.75,1028.85z"/>
		<path id="XMLID_28430_" class="st0" d="M822.21,1520.81h-68.04v-138.94H626.69v138.94h-68.25v-321.9h68.25v126.16h127.48v-126.16
			h68.04V1520.81z"/>
		<path id="XMLID_28427_" class="st0" d="M1113.69,1397.29c0,40.07-10.57,71.41-31.71,94.01c-21.14,22.61-50.57,33.91-88.3,33.91
			c-23.63,0-44.48-5.17-62.53-15.51c-18.06-10.36-31.93-25.21-41.62-44.59c-9.69-19.38-14.53-41.98-14.53-67.81
			c0-40.22,10.49-71.49,31.48-93.8c20.99-22.31,50.49-33.46,88.51-33.46c23.63,0,44.48,5.14,62.53,15.41
			c18.05,10.28,31.93,25.03,41.61,44.25C1108.84,1348.92,1113.69,1371.46,1113.69,1397.29z M943.49,1397.29
			c0,24.36,4,42.78,12,55.26c8,12.48,21.03,18.72,39.08,18.72c17.91,0,30.79-6.2,38.64-18.6c7.85-12.41,11.78-30.87,11.78-55.38
			c0-24.37-3.96-42.65-11.89-54.83c-7.93-12.19-20.91-18.28-38.97-18.28c-17.91,0-30.83,6.06-38.75,18.17
			C947.45,1354.46,943.49,1372.78,943.49,1397.29z"/>
		<path id="XMLID_28425_" class="st0" d="M1381.38,1520.81h-67.15v-143.78c0-17.76-2.97-31.08-8.91-39.96
			c-5.95-8.89-15.31-13.32-28.07-13.32c-17.18,0-29.65,6.31-37.43,18.93c-7.78,12.63-11.67,33.4-11.67,62.31v115.82h-67.15v-246.16
			h51.31l9.02,31.48h3.75c6.6-11.3,16.14-20.14,28.62-26.53c12.48-6.38,26.79-9.58,42.93-9.58c36.84,0,61.79,12.04,74.86,36.11h5.95
			c6.6-11.45,16.33-20.33,29.16-26.64c12.85-6.31,27.35-9.46,43.49-9.46c27.89,0,48.99,7.16,63.3,21.46
			c14.31,14.31,21.47,37.25,21.47,68.81v160.51h-67.37v-143.78c0-17.76-2.97-31.08-8.92-39.96c-5.95-8.89-15.3-13.32-28.08-13.32
			c-16.44,0-28.73,5.87-36.88,17.61c-8.15,11.74-12.22,30.39-12.22,55.93V1520.81z"/>
		<path id="XMLID_28422_" class="st0" d="M1706.99,1525.21c-39.63,0-70.61-10.93-92.92-32.8c-22.31-21.87-33.46-52.84-33.46-92.91
			c0-41.25,10.31-73.14,30.93-95.67c20.63-22.53,49.14-33.8,85.54-33.8c34.79,0,61.87,9.91,81.25,29.73
			c19.38,19.81,29.06,47.19,29.06,82.12v32.59h-158.75c0.74,19.08,6.39,33.98,16.95,44.7c10.58,10.71,25.4,16.07,44.48,16.07
			c14.82,0,28.84-1.54,42.06-4.62c13.21-3.09,27-8,41.39-14.76v51.96c-11.74,5.88-24.29,10.24-37.65,13.11
			C1742.51,1523.78,1726.22,1525.21,1706.99,1525.21z M1697.52,1317.8c-14.24,0-25.39,4.51-33.47,13.54
			c-8.08,9.03-12.7,21.83-13.87,38.42h94.23c-0.29-16.59-4.62-29.39-12.99-38.42C1723.06,1322.32,1711.76,1317.8,1697.52,1317.8z"/>
	</g>
</g>
</svg>
